# xmcd
#
# Track frame offsets: 
#        150
#        9595
#        21228
#        32930
#        44194
#        61323
#        74871
#        85222
#        99321
#        114855
#        127581
#        140753
#        149955
#        164785
#        177602
#        186929
#        197426
#        209804
#        235710
#        256245
#        279664
#        289325
#
# Disc length: 4116 seconds
#
# Revision: 0
# Processed by: cddbd v1.5.2PL0 Copyright (c) Steve Scherf et al.
# Submitted via: ExactAudioCopy v0.95b3
#
DISCID=64101216
DTITLE=The Pogues  - Just Look Them Straight In The Eye And Say...Pogu
DTITLE=e Mahone!! [CD 2)
DYEAR=1900
DGENRE=
TTITLE0=Repeal Of The Licensing Laws
TTITLE1=Dark Streets Of London
TTITLE2=Greenland Whale Fisheries
TTITLE3=Streams of Whiskey
TTITLE4=The Auld Triangle
TTITLE5=Poor Paddy On The Railway
TTITLE6=Sea Shanty
TTITLE7=Transmetropolitan
TTITLE8=Kitty
TTITLE9=Boys From The County Hell
TTITLE10=Connemara, Let's Go!
TTITLE11=Billy's Bones
TTITLE12=The Old Main Drag
TTITLE13=Sally Maclennane
TTITLE14=The Town That Never Sleeps
TTITLE15=Something Wild
TTITLE16=Driving Through The City
TTITLE17=Rainy Night In Soho (Oboe Mix)
TTITLE18=Fairytale Of New York (extract from 1st Demo)
TTITLE19=Fairytale Of New York (extract from 2nd Demo)
TTITLE20=Fairytale Of New York (extract from 3rd Demo)
TTITLE21=Navigator
EXTD=
EXTT0=
EXTT1=
EXTT2=
EXTT3=
EXTT4=
EXTT5=
EXTT6=
EXTT7=
EXTT8=
EXTT9=
EXTT10=
EXTT11=
EXTT12=
EXTT13=
EXTT14=
EXTT15=
EXTT16=
EXTT17=
EXTT18=
EXTT19=
EXTT20=
EXTT21=
PLAYORDER=
